<?xml version="1.0" encoding="UTF-8" standalone="no"?>
<!DOCTYPE svg PUBLIC "-//W3C//DTD SVG 1.1//EN"
 "http://www.w3.org/Graphics/SVG/1.1/DTD/svg11.dtd">
<!-- Generated by graphviz version 12.1.1 (20240910.0053)
 -->
<!-- Pages: 1 -->
<svg width="752pt" height="487pt"
 viewBox="0.00 0.00 752.07 486.50" xmlns="http://www.w3.org/2000/svg" xmlns:xlink="http://www.w3.org/1999/xlink">
<g id="graph0" class="graph" transform="scale(1 1) rotate(0) translate(4 482.5)">
<polygon fill="white" stroke="none" points="-4,4 -4,-482.5 748.07,-482.5 748.07,4 -4,4"/>
<!-- 1 -->
<g id="node1" class="node">
<title>1</title>
<ellipse fill="#77dd77" stroke="black" stroke-width="0" cx="226.07" cy="-283.5" rx="51.86" ry="18"/>
<text text-anchor="middle" x="226.07" y="-278.45" font-family="Times,serif" font-size="14.00">Rezhissöör</text>
</g>
<!-- 2 -->
<g id="node2" class="node">
<title>2</title>
<ellipse fill="#d3d3d3" stroke="black" stroke-width="0" cx="64.07" cy="-195" rx="33.44" ry="18"/>
<text text-anchor="middle" x="64.07" y="-189.95" font-family="Times,serif" font-size="14.00">Curtis</text>
</g>
<!-- 1&#45;&gt;2 -->
<g id="edge1" class="edge">
<title>1&#45;&gt;2</title>
<path fill="none" stroke="black" d="M198.59,-267.83C170.57,-252.86 127.08,-229.64 97.18,-213.68"/>
<polygon fill="black" stroke="black" points="99.02,-210.7 88.55,-209.07 95.72,-216.87 99.02,-210.7"/>
<text text-anchor="middle" x="175.33" y="-234.2" font-family="Times,serif" font-size="14.00">appos</text>
</g>
<!-- 5 -->
<g id="node3" class="node">
<title>5</title>
<ellipse fill="#d3d3d3" stroke="black" stroke-width="0" cx="264.07" cy="-195" rx="27" ry="18"/>
<text text-anchor="middle" x="264.07" y="-189.95" font-family="Times,serif" font-size="14.00">LA</text>
</g>
<!-- 1&#45;&gt;5 -->
<g id="edge2" class="edge">
<title>1&#45;&gt;5</title>
<path fill="none" stroke="black" d="M233.58,-265.41C238.87,-253.37 246.06,-236.99 252.13,-223.17"/>
<polygon fill="black" stroke="black" points="255.28,-224.71 256.1,-214.15 248.87,-221.89 255.28,-224.71"/>
<text text-anchor="middle" x="272.85" y="-234.2" font-family="Times,serif" font-size="14.00">parataxis</text>
</g>
<!-- 3 -->
<g id="node4" class="node">
<title>3</title>
<ellipse fill="#d3d3d3" stroke="black" stroke-width="0" cx="39.07" cy="-106.5" rx="39.07" ry="18"/>
<text text-anchor="middle" x="39.07" y="-101.45" font-family="Times,serif" font-size="14.00">Hanson</text>
</g>
<!-- 2&#45;&gt;3 -->
<g id="edge3" class="edge">
<title>2&#45;&gt;3</title>
<path fill="none" stroke="black" d="M59.13,-176.91C55.73,-165.14 51.13,-149.23 47.19,-135.61"/>
<polygon fill="black" stroke="black" points="50.64,-134.94 44.5,-126.3 43.92,-136.88 50.64,-134.94"/>
<text text-anchor="middle" x="62.81" y="-145.7" font-family="Times,serif" font-size="14.00">flat</text>
</g>
<!-- 4 -->
<g id="node5" class="node">
<title>4</title>
<ellipse fill="#d3d3d3" stroke="black" stroke-width="0" cx="123.07" cy="-106.5" rx="27" ry="18"/>
<text text-anchor="middle" x="123.07" y="-101.45" font-family="Times,serif" font-size="14.00">(</text>
</g>
<!-- 5&#45;&gt;4 -->
<g id="edge4" class="edge">
<title>5&#45;&gt;4</title>
<path fill="none" stroke="black" d="M244.76,-182.15C220.84,-167.48 179.88,-142.35 152.16,-125.35"/>
<polygon fill="black" stroke="black" points="154.24,-122.52 143.89,-120.27 150.58,-128.49 154.24,-122.52"/>
<text text-anchor="middle" x="221.2" y="-145.7" font-family="Times,serif" font-size="14.00">punct</text>
</g>
<!-- 6 -->
<g id="node6" class="node">
<title>6</title>
<ellipse fill="#d3d3d3" stroke="black" stroke-width="0" cx="225.07" cy="-106.5" rx="56.98" ry="18"/>
<text text-anchor="middle" x="225.07" y="-101.45" font-family="Times,serif" font-size="14.00">Confidential</text>
</g>
<!-- 5&#45;&gt;6 -->
<g id="edge5" class="edge">
<title>5&#45;&gt;6</title>
<path fill="none" stroke="black" d="M256.55,-177.32C251.17,-165.39 243.8,-149.05 237.55,-135.18"/>
<polygon fill="black" stroke="black" points="240.76,-133.77 233.45,-126.1 234.38,-136.65 240.76,-133.77"/>
<text text-anchor="middle" x="257.06" y="-145.7" font-family="Times,serif" font-size="14.00">flat</text>
</g>
<!-- 8 -->
<g id="node7" class="node">
<title>8</title>
<ellipse fill="#d3d3d3" stroke="black" stroke-width="0" cx="341.07" cy="-106.5" rx="40.6" ry="18"/>
<text text-anchor="middle" x="341.07" y="-101.45" font-family="Times,serif" font-size="14.00">Wonder</text>
</g>
<!-- 5&#45;&gt;8 -->
<g id="edge6" class="edge">
<title>5&#45;&gt;8</title>
<path fill="none" stroke="black" d="M277.48,-178.93C289.01,-165.98 305.85,-147.07 319.3,-131.95"/>
<polygon fill="black" stroke="black" points="321.72,-134.49 325.76,-124.7 316.5,-129.84 321.72,-134.49"/>
<text text-anchor="middle" x="321.09" y="-145.7" font-family="Times,serif" font-size="14.00">conj</text>
</g>
<!-- 10 -->
<g id="node8" class="node">
<title>10</title>
<ellipse fill="#d3d3d3" stroke="black" stroke-width="0" cx="427.07" cy="-106.5" rx="27" ry="18"/>
<text text-anchor="middle" x="427.07" y="-101.45" font-family="Times,serif" font-size="14.00">)</text>
</g>
<!-- 5&#45;&gt;10 -->
<g id="edge7" class="edge">
<title>5&#45;&gt;10</title>
<path fill="none" stroke="black" d="M285.99,-184C300.6,-177.21 320.14,-167.88 337.07,-159 357.72,-148.16 380.52,-135.1 398.01,-124.84"/>
<polygon fill="black" stroke="black" points="399.49,-128.03 406.33,-119.94 395.93,-122 399.49,-128.03"/>
<text text-anchor="middle" x="382.1" y="-145.7" font-family="Times,serif" font-size="14.00">punct</text>
</g>
<!-- 11 -->
<g id="node9" class="node">
<title>11</title>
<ellipse fill="#d3d3d3" stroke="black" stroke-width="0" cx="499.07" cy="-106.5" rx="27" ry="18"/>
<text text-anchor="middle" x="499.07" y="-101.45" font-family="Times,serif" font-size="14.00">,</text>
</g>
<!-- 5&#45;&gt;11 -->
<g id="edge8" class="edge">
<title>5&#45;&gt;11</title>
<path fill="none" stroke="black" d="M289.65,-188.22C323.39,-180.46 380.85,-166.77 401.07,-159 425.14,-149.75 450.89,-136.05 469.96,-125.11"/>
<polygon fill="black" stroke="black" points="471.63,-128.19 478.5,-120.12 468.1,-122.14 471.63,-128.19"/>
<text text-anchor="middle" x="452.11" y="-145.7" font-family="Times,serif" font-size="14.00">punct</text>
</g>
<!-- 7 -->
<g id="node10" class="node">
<title>7</title>
<ellipse fill="#d3d3d3" stroke="black" stroke-width="0" cx="303.07" cy="-18" rx="27" ry="18"/>
<text text-anchor="middle" x="303.07" y="-12.95" font-family="Times,serif" font-size="14.00">,</text>
</g>
<!-- 8&#45;&gt;7 -->
<g id="edge9" class="edge">
<title>8&#45;&gt;7</title>
<path fill="none" stroke="black" d="M331.29,-88.66C328.16,-82.98 324.81,-76.55 322.07,-70.5 318.63,-62.92 315.33,-54.52 312.47,-46.73"/>
<polygon fill="black" stroke="black" points="315.79,-45.62 309.14,-37.37 309.19,-47.97 315.79,-45.62"/>
<text text-anchor="middle" x="337.07" y="-57.2" font-family="Times,serif" font-size="14.00">punct</text>
</g>
<!-- 9 -->
<g id="node11" class="node">
<title>9</title>
<ellipse fill="#d3d3d3" stroke="black" stroke-width="0" cx="378.07" cy="-18" rx="29.86" ry="18"/>
<text text-anchor="middle" x="378.07" y="-12.95" font-family="Times,serif" font-size="14.00">Boys</text>
</g>
<!-- 8&#45;&gt;9 -->
<g id="edge10" class="edge">
<title>8&#45;&gt;9</title>
<path fill="none" stroke="black" d="M348.38,-88.41C353.53,-76.37 360.54,-59.99 366.45,-46.17"/>
<polygon fill="black" stroke="black" points="369.59,-47.72 370.3,-37.15 363.15,-44.97 369.59,-47.72"/>
<text text-anchor="middle" x="371.88" y="-57.2" font-family="Times,serif" font-size="14.00">flat</text>
</g>
<!-- 12 -->
<g id="node12" class="node">
<title>12</title>
<ellipse fill="#77dd77" stroke="black" stroke-width="0" cx="499.07" cy="-372" rx="27" ry="18"/>
<text text-anchor="middle" x="499.07" y="-366.95" font-family="Times,serif" font-size="14.00">tegi</text>
</g>
<!-- 12&#45;&gt;1 -->
<g id="edge11" class="edge">
<title>12&#45;&gt;1</title>
<path fill="none" stroke="black" d="M474.35,-364.23C449.78,-357.41 411.06,-346.43 377.82,-336 342.12,-324.8 302.05,-311.15 272.05,-300.72"/>
<polygon fill="black" stroke="black" points="273.5,-297.52 262.91,-297.54 271.2,-304.13 273.5,-297.52"/>
<text text-anchor="middle" x="392.44" y="-322.7" font-family="Times,serif" font-size="14.00">nsubj</text>
</g>
<!-- 13 -->
<g id="node13" class="node">
<title>13</title>
<ellipse fill="#77dd77" stroke="black" stroke-width="0" cx="350.07" cy="-283.5" rx="54.42" ry="18"/>
<text text-anchor="middle" x="350.07" y="-278.45" font-family="Times,serif" font-size="14.00">Eminemiga</text>
</g>
<!-- 12&#45;&gt;13 -->
<g id="edge12" class="edge">
<title>12&#45;&gt;13</title>
<path fill="none" stroke="black" d="M479.28,-359.51C455.56,-345.74 415.34,-322.39 386.06,-305.4"/>
<polygon fill="black" stroke="black" points="387.92,-302.44 377.52,-300.44 384.41,-308.49 387.92,-302.44"/>
<text text-anchor="middle" x="446.54" y="-322.7" font-family="Times,serif" font-size="14.00">obl</text>
</g>
<!-- 16 -->
<g id="node14" class="node">
<title>16</title>
<ellipse fill="#77dd77" stroke="black" stroke-width="0" cx="455.07" cy="-283.5" rx="32.93" ry="18"/>
<text text-anchor="middle" x="455.07" y="-278.45" font-family="Times,serif" font-size="14.00">algust</text>
</g>
<!-- 12&#45;&gt;16 -->
<g id="edge13" class="edge">
<title>12&#45;&gt;16</title>
<path fill="none" stroke="black" d="M489.87,-354.72C486.62,-348.86 482.99,-342.17 479.82,-336 475.76,-328.12 471.52,-319.46 467.72,-311.53"/>
<polygon fill="black" stroke="black" points="470.97,-310.2 463.51,-302.68 464.64,-313.21 470.97,-310.2"/>
<text text-anchor="middle" x="488.44" y="-322.7" font-family="Times,serif" font-size="14.00">obl</text>
</g>
<!-- 18 -->
<g id="node15" class="node">
<title>18</title>
<ellipse fill="#77dd77" stroke="black" stroke-width="0" cx="543.07" cy="-283.5" rx="37.53" ry="18"/>
<text text-anchor="middle" x="543.07" y="-278.45" font-family="Times,serif" font-size="14.00">nädalat</text>
</g>
<!-- 12&#45;&gt;18 -->
<g id="edge14" class="edge">
<title>12&#45;&gt;18</title>
<path fill="none" stroke="black" d="M507.34,-354.73C513.53,-342.56 522.14,-325.65 529.35,-311.47"/>
<polygon fill="black" stroke="black" points="532.43,-313.14 533.84,-302.64 526.19,-309.96 532.43,-313.14"/>
<text text-anchor="middle" x="533.63" y="-322.7" font-family="Times,serif" font-size="14.00">obl</text>
</g>
<!-- 19 -->
<g id="node16" class="node">
<title>19</title>
<ellipse fill="#77dd77" stroke="black" stroke-width="0" cx="635.07" cy="-283.5" rx="36.51" ry="18"/>
<text text-anchor="middle" x="635.07" y="-278.45" font-family="Times,serif" font-size="14.00">proove</text>
</g>
<!-- 12&#45;&gt;19 -->
<g id="edge15" class="edge">
<title>12&#45;&gt;19</title>
<path fill="none" stroke="black" d="M518.27,-358.79C540.47,-344.67 577.35,-321.21 603.73,-304.43"/>
<polygon fill="black" stroke="black" points="605.43,-307.49 611.99,-299.17 601.68,-301.59 605.43,-307.49"/>
<text text-anchor="middle" x="587.87" y="-322.7" font-family="Times,serif" font-size="14.00">obj</text>
</g>
<!-- 20 -->
<g id="node17" class="node">
<title>20</title>
<ellipse fill="#d3d3d3" stroke="black" stroke-width="0" cx="717.07" cy="-283.5" rx="27" ry="18"/>
<text text-anchor="middle" x="717.07" y="-278.45" font-family="Times,serif" font-size="14.00">.</text>
</g>
<!-- 12&#45;&gt;20 -->
<g id="edge16" class="edge">
<title>12&#45;&gt;20</title>
<path fill="none" stroke="black" d="M522.91,-363.26C543.48,-356.45 573.92,-346.08 600.07,-336 636.58,-321.92 645.37,-317.52 681.07,-301.5 682.38,-300.91 683.72,-300.31 685.07,-299.69"/>
<polygon fill="black" stroke="black" points="686.46,-302.9 694.06,-295.52 683.51,-296.55 686.46,-302.9"/>
<text text-anchor="middle" x="654.52" y="-322.7" font-family="Times,serif" font-size="14.00">punct</text>
</g>
<!-- 14 -->
<g id="node18" class="node">
<title>14</title>
<ellipse fill="#fdfd96" stroke="black" stroke-width="0" cx="379.07" cy="-195" rx="28.32" ry="18"/>
<text text-anchor="middle" x="379.07" y="-189.95" font-family="Times,serif" font-size="14.00">enne</text>
</g>
<!-- 16&#45;&gt;14 -->
<g id="edge17" class="edge">
<title>16&#45;&gt;14</title>
<path fill="none" stroke="black" d="M441.48,-267.04C429.92,-253.87 413.12,-234.76 399.87,-219.67"/>
<polygon fill="black" stroke="black" points="402.77,-217.67 393.54,-212.47 397.51,-222.29 402.77,-217.67"/>
<text text-anchor="middle" x="435.5" y="-234.2" font-family="Times,serif" font-size="14.00">case</text>
</g>
<!-- 15 -->
<g id="node19" class="node">
<title>15</title>
<ellipse fill="#d3d3d3" stroke="black" stroke-width="0" cx="459.07" cy="-195" rx="33.44" ry="18"/>
<text text-anchor="middle" x="459.07" y="-189.95" font-family="Times,serif" font-size="14.00">võtete</text>
</g>
<!-- 16&#45;&gt;15 -->
<g id="edge18" class="edge">
<title>16&#45;&gt;15</title>
<path fill="none" stroke="black" d="M455.86,-265.41C456.4,-253.76 457.12,-238.05 457.75,-224.52"/>
<polygon fill="black" stroke="black" points="461.23,-225.01 458.2,-214.86 454.24,-224.69 461.23,-225.01"/>
<text text-anchor="middle" x="473.18" y="-234.2" font-family="Times,serif" font-size="14.00">nmod</text>
</g>
<!-- 17 -->
<g id="node20" class="node">
<title>17</title>
<ellipse fill="#d3d3d3" stroke="black" stroke-width="0" cx="543.07" cy="-195" rx="28.32" ry="18"/>
<text text-anchor="middle" x="543.07" y="-189.95" font-family="Times,serif" font-size="14.00">kuus</text>
</g>
<!-- 18&#45;&gt;17 -->
<g id="edge19" class="edge">
<title>18&#45;&gt;17</title>
<path fill="none" stroke="black" d="M543.07,-265.41C543.07,-253.76 543.07,-238.05 543.07,-224.52"/>
<polygon fill="black" stroke="black" points="546.57,-224.86 543.07,-214.86 539.57,-224.86 546.57,-224.86"/>
<text text-anchor="middle" x="567.82" y="-234.2" font-family="Times,serif" font-size="14.00">nummod</text>
</g>
<!-- 0 -->
<g id="node21" class="node">
<title>0</title>
<polygon fill="none" stroke="none" stroke-width="0" points="526.07,-478.5 472.07,-478.5 472.07,-442.5 526.07,-442.5 526.07,-478.5"/>
</g>
<!-- 0&#45;&gt;12 -->
<g id="edge20" class="edge">
<title>0&#45;&gt;12</title>
<path fill="none" stroke="black" d="M499.07,-442.82C499.07,-431.13 499.07,-415.2 499.07,-401.51"/>
<polygon fill="black" stroke="black" points="502.57,-401.73 499.07,-391.73 495.57,-401.73 502.57,-401.73"/>
<text text-anchor="middle" x="509.94" y="-411.2" font-family="Times,serif" font-size="14.00">root</text>
</g>
</g>
</svg>
